Coordinates
version=1
nRows=8
nColumns=63
inDegrees=yes

Units are S.I. units (second, meters, Newtons, ...)
If the header above contains a line with 'inDegrees', this indicates whether rotational values are in degrees (yes) or radians (no).

endheader
time	pelvis_tilt	pelvis_list	pelvis_rotation	pelvis_tx	pelvis_ty	pelvis_tz	hip_flexion_r	hip_adduction_r	hip_rotation_r	knee_angle_r	knee_angle_r_beta	ankle_angle_r	subtalar_angle_r	mtp_angle_r	hip_flexion_l	hip_adduction_l	hip_rotation_l	knee_angle_l	knee_angle_l_beta	ankle_angle_l	subtalar_angle_l	mtp_angle_l	L5_S1_Flex_Ext	L5_S1_Lat_Bending	L5_S1_axial_rotation	L4_L5_Flex_Ext	L4_L5_Lat_Bending	L4_L5_axial_rotation	L3_L4_Flex_Ext	L3_L4_Lat_Bending	L3_L4_axial_rotation	L2_L3_Flex_Ext	L2_L3_Lat_Bending	L2_L3_axial_rotation	L1_L2_Flex_Ext	L1_L2_Lat_Bending	L1_L2_axial_rotation	L1_T12_Flex_Ext	L1_T12_Lat_Bending	L1_T12_axial_rotation	Abs_r3	Abs_r2	Abs_r1	Abs_t1	Abs_t2	neck_flexion	neck_bending	neck_rotation	arm_flex_r	arm_add_r	arm_rot_r	elbow_flex_r	pro_sup_r	wrist_flex_r	wrist_dev_r	arm_flex_l	arm_add_l	arm_rot_l	elbow_flex_l	pro_sup_l	wrist_flex_l	wrist_dev_l
3.711864	1.772708	-5.651624	95.453457	0.113837	0.974660	0.395855	-3.148145	3.196924	-1.098114	0.422148	0.007368	19.888839	-8.536690	0.000000	-0.446408	-2.910515	-5.947733	8.886885	0.155105	29.044180	-8.118368	0.000000	0.140827	-0.023673	1.349978	0.261530	-0.031485	1.434352	0.231365	-0.057558	1.434352	0.160951	-0.057558	1.181231	0.130772	-0.048274	1.096857	0.080469	-0.036669	1.012484	1.005914	-0.267793	7.508174	0.000000	0.000000	17.717966	4.900917	9.651723	4.006704	-13.688752	52.310621	25.112997	76.174157	-10.941419	-6.697933	8.807369	-14.298024	70.267238	24.422960	81.334747	-6.032148	-13.429729
3.728814	1.902427	-5.607286	95.813730	0.112180	0.974781	0.396127	-3.186979	3.279419	-1.267278	0.456708	0.007971	19.723918	-8.882460	0.000000	-0.667851	-2.951986	-5.349049	8.431110	0.147151	28.874000	-7.767853	0.000000	0.137185	0.001410	1.216312	0.254767	0.001875	1.292332	0.225382	0.003428	1.292332	0.156789	0.003428	1.064273	0.127390	0.002875	0.988254	0.078388	0.002184	0.912234	0.979901	0.015948	6.764763	0.000000	0.000000	17.357247	4.831459	9.788235	4.617993	-13.878717	55.249294	24.737749	75.988615	-12.164164	-7.085442	8.643707	-14.107719	70.418734	23.862858	80.371122	-5.187397	-13.266128
3.745763	2.046893	-5.573759	96.194454	0.110574	0.974861	0.396455	-3.207501	3.383625	-1.569148	0.490605	0.008563	19.627516	-9.063878	0.000000	-0.878089	-3.016895	-4.786111	7.945026	0.138667	28.717265	-7.396171	0.000000	0.134336	0.026507	1.079918	0.249476	0.035255	1.147413	0.220701	0.064450	1.147413	0.153533	0.064450	0.944928	0.124745	0.054054	0.877434	0.076760	0.041060	0.809939	0.959551	0.299857	6.006181	0.000000	0.000000	17.096075	4.707197	9.917797	5.273934	-14.005339	58.508178	24.262436	75.604203	-13.483719	-7.551339	8.547567	-13.896729	70.772589	23.242297	79.499152	-4.461193	-13.085189
3.762712	2.201507	-5.546919	96.607111	0.109001	0.974903	0.396876	-3.214665	3.500449	-2.164151	0.529872	0.009248	19.640472	-8.861378	0.000000	-1.062095	-3.098339	-4.227905	7.463569	0.130264	28.583491	-7.041425	0.000000	0.129881	0.050595	0.943043	0.241202	0.067291	1.001984	0.213381	0.123017	1.001984	0.148441	0.123017	0.825163	0.120607	0.103173	0.766223	0.074214	0.078372	0.707283	0.927726	0.572341	5.244925	0.000000	0.000000	16.996202	4.503457	9.946685	5.922093	-14.079471	61.639181	23.748763	75.442653	-14.737325	-7.926268	8.535582	-13.673055	71.334131	22.603984	78.691226	-3.811001	-12.841655
3.779661	2.348467	-5.524864	96.971833	0.107525	0.974913	0.397319	-3.222634	3.611654	-2.564588	0.562522	0.009818	19.633691	-8.866635	0.000000	-1.255087	-3.160751	-3.608542	6.955953	0.121404	28.382226	-6.966514	0.000000	0.124343	0.072507	0.822435	0.230917	0.096435	0.873837	0.204283	0.176294	0.873837	0.142111	0.176294	0.719631	0.115465	0.147857	0.668228	0.071049	0.112314	0.616826	0.888167	0.820217	4.574137	0.000000	0.000000	17.024633	4.220861	9.902509	6.587040	-14.103286	65.018033	23.214924	75.095309	-15.872523	-8.213632	8.611249	-13.443255	72.152393	21.974049	78.147476	-3.539312	-12.591357
3.796610	2.499639	-5.520620	97.299578	0.106118	0.974866	0.397820	-3.206741	3.722886	-3.092466	0.608456	0.010620	19.681734	-8.656032	0.000000	-1.415838	-3.226948	-3.130045	6.476444	0.113035	28.214582	-6.889720	0.000000	0.118855	0.093406	0.722726	0.220726	0.124229	0.767896	0.195267	0.227106	0.767896	0.135839	0.227106	0.632385	0.110369	0.190473	0.587215	0.067914	0.144685	0.542044	0.848970	1.056622	4.019585	0.000000	0.000000	17.204716	3.839797	9.719902	7.130104	-14.178434	67.291289	22.782951	75.863458	-16.786651	-8.187827	8.782801	-13.202026	73.211400	21.361417	77.778896	-3.490550	-12.361385
3.813559	2.642717	-5.534233	97.570537	0.104803	0.974775	0.398399	-3.167240	3.821126	-3.654636	0.665883	0.011622	19.781204	-8.328993	0.000000	-1.547243	-3.279297	-2.663343	6.028142	0.105211	28.023237	-7.015715	0.000000	0.112484	0.111737	0.643235	0.208894	0.148610	0.683438	0.184800	0.271677	0.683438	0.128558	0.271677	0.562831	0.104453	0.227853	0.522629	0.064273	0.173080	0.482427	0.803462	1.263988	3.577483	0.000000	0.000000	17.536452	3.391026	9.402251	7.723600	-14.136173	70.318982	22.277639	75.760407	-17.440284	-8.195050	9.008277	-12.983428	74.300069	20.838569	77.715586	-3.667370	-12.101588
3.830508	2.770839	-5.552881	97.785268	0.103587	0.974660	0.398999	-3.129688	3.906167	-3.888925	0.716167	0.012499	19.779079	-8.427791	0.000000	-1.679022	-3.312539	-2.259118	5.587138	0.097514	27.806008	-7.273328	0.000000	0.105162	0.127661	0.577335	0.195297	0.169789	0.613418	0.172771	0.310394	0.613418	0.120190	0.310394	0.505168	0.097654	0.260326	0.469085	0.060090	0.197746	0.433001	0.751163	1.444123	3.210963	0.000000	0.000000	17.893031	2.968434	9.133493	8.351185	-14.007426	73.920255	21.750312	74.873455	-17.753619	-8.166236	9.177432	-12.802190	74.995766	20.433139	77.923447	-3.740744	-11.830197
